<svg width="158.225px" height="159.2px" xmlns="http://www.w3.org/2000/svg" viewBox="170.8875 -4.599999999999994 158.225 159.2" preserveAspectRatio="xMidYMid"><defs><linearGradient id="editing-shiny-gradient" x1="0" x2="1" y1="0.5" y2="0.5" gradientUnits="objectBoundingBox"><stop offset="0.0" stop-color="#ffb200"></stop><stop offset="0.5" stop-color="#e10057"></stop><stop offset="1.0" stop-color="#5A1A80"></stop></linearGradient><linearGradient id="editing-shiny-gradient2" x1="0" x2="0" y1="0" y2="1"><stop offset="0.2" stop-color="#fff" stop-opacity="0.8"></stop><stop offset="0.8" stop-color="#fff" stop-opacity="0"></stop></linearGradient><filter id="editing-shiny2" x="-100%" y="-100%" width="300%" height="300%"><feMorphology operator="erode" radius="2"></feMorphology></filter><filter id="editing-shiny" x="-100%" y="-100%" width="300%" height="300%"><feFlood flood-color="#fff" result="flood"></feFlood><feConvolveMatrix in="SourceGraphic" result="conv" order="8,8" divisor="1" kernelMatrix="0 0 0 0 0 0 0 0 0 0 0 1 1 0 0 0 0 0 0 1 1 0 0 0 0 0 1 0 0 1 0 0 0 0 1 0 0 1 0 0 0 1 0 0 0 0 1 0 0 1 1 0 0 1 1 0 0 0 0 1 1 0 0 0 "></feConvolveMatrix><feOffset dx="0" dy="4" in="conv" result="offset"></feOffset><feComposite operator="in" in="flood" in2="offset" result="comp"></feComposite><feGaussianBlur in="offset" stdDeviation="3" result="shadow"></feGaussianBlur><feColorMatrix in="shadow" type="matrix" values="0.7 0 0 0 0  0 0.7 0 0 0  0 0 0.7 0 0  0 0 0 0.3 0" result="dark-shadow"></feColorMatrix><feOffset dx="0" dy="4" in="dark-shadow" result="offset-shadow"></feOffset><feOffset dx="0" dy="2" in="conv" result="offset-2"></feOffset><feComposite operator="out" in="offset" in2="offset-2" result="edge-diff"></feComposite><feGaussianBlur in="edge-diff" stdDeviation="1" result="edge-blur"></feGaussianBlur><feColorMatrix in="edge-blur" result="edge-shadow" type="matrix" values="0 0 0 0 0  0 0 0 0 0  0 0 0 0 0  0 0 0 0.5 0"></feColorMatrix><feComposite operator="in" in="edge-shadow" in2="offset" result="edge-shadow-in"></feComposite><feOffset dx="0" dy="1" in="edge-shadow-in" result="edge-shadow-final"></feOffset><feMerge result="out"><feMergeNode in="offset-shadow"></feMergeNode><feMergeNode in="comp"></feMergeNode><feMergeNode in="edge-shadow-final"></feMergeNode><feMergeNode in="SourceGraphic"></feMergeNode></feMerge></filter></defs><g filter="url(#editing-shiny)"><g transform="translate(198.0400094985962, 105.89000129699707)"><path d="M8.54-42.86L8.54-42.86L8.54-42.86Q5.54-45.14 5.54-50.03L5.54-50.03L5.54-50.03Q5.54-54.91 8.76-57.46L8.76-57.46L8.76-57.46Q11.97-60.02 17.51-60.02L17.51-60.02L17.51-60.02Q21.03-60.02 29.39-58.78L29.39-58.78L35.38-57.90L35.38-57.90Q38.37-57.55 41.49-57.55L41.49-57.55L41.49-57.55Q44.62-57.55 46.73-58.87L46.73-58.87L46.73-58.87Q49.90-56.06 49.90-52.01L49.90-52.01L49.90-52.01Q49.90-47.96 46.29-45.06L46.29-45.06L46.29-45.06Q42.59-41.98 37.84-41.98L37.84-41.98L37.84-41.98Q35.55-41.98 31.86-42.59L31.86-42.59L31.86-42.59Q27.54-29.04 27.54-19.62L27.54-19.62L27.54-19.62Q27.54-10.21 32.30-5.28L32.30-5.28L32.30-5.28Q30.10-1.32 26.84 0.22L26.84 0.22L26.84 0.22Q23.58 1.76 18.70 1.76L18.70 1.76L18.70 1.76Q13.82 1.76 10.78-0.92L10.78-0.92L10.78-0.92Q7.74-3.61 7.74-9.15L7.74-9.15L7.74-9.15Q7.74-15.58 11.26-26.14L11.26-26.14L11.26-26.14Q14.78-36.61 20.06-44.62L20.06-44.62L20.06-44.62Q17.51-44.88 14.87-44.88L14.87-44.88L14.87-44.88Q9.42-44.88 8.54-42.86ZM46.20-0.44L46.20-0.44L57.29-58.08L57.29-58.08Q67.67-58.96 74.36-58.96L74.36-58.96L74.36-58.96Q81.05-58.96 85.36-58.39L85.36-58.39L85.36-58.39Q89.67-57.82 92.58-56.32L92.58-56.32L92.58-56.32Q98.38-53.50 98.38-45.76L98.38-45.76L98.38-45.76Q98.38-41.27 94.51-37.49L94.51-37.49L94.51-37.49Q90.90-34.06 86.94-33.26L86.94-33.26L86.94-33.26Q91.17-32.56 94.16-29.39L94.16-29.39L94.16-29.39Q97.33-26.05 97.33-20.86L97.33-20.86L97.33-20.86Q97.33-10.82 89.85-4.97L89.85-4.97L89.85-4.97Q82.37 0.88 67.67 0.88L67.67 0.88L67.67 0.88Q57.55 0.88 46.20-0.44ZM70.14-28.34L65.74-5.54L65.74-5.54Q66.53-5.46 66.70-5.46L66.70-5.46L67.50-5.46L67.50-5.46Q74.71-5.46 77.79-10.21L77.79-10.21L77.79-10.21Q80.08-13.90 80.08-20.68L80.08-20.68L80.08-20.68Q80.08-24.29 77.75-26.22L77.75-26.22L77.75-26.22Q75.42-28.16 70.14-28.34L70.14-28.34ZM83.51-45.67L83.51-45.67L83.51-45.67Q83.51-52.98 76.47-52.98L76.47-52.98L75.68-52.98L75.68-52.98Q75.33-52.98 74.80-52.89L74.80-52.89L71.28-34.32L72.16-34.32L72.16-34.32Q83.51-34.58 83.51-45.67Z" fill="url(#editing-shiny-gradient)"></path></g></g><g filter="url(#editing-shiny2)"><g transform="translate(198.0400094985962, 105.8900032043457)"><path d="M8.54-42.86L8.54-42.86L8.54-42.86Q5.54-45.14 5.54-50.03L5.54-50.03L5.54-50.03Q5.54-54.91 8.76-57.46L8.76-57.46L8.76-57.46Q11.97-60.02 17.51-60.02L17.51-60.02L17.51-60.02Q21.03-60.02 29.39-58.78L29.39-58.78L35.38-57.90L35.38-57.90Q38.37-57.55 41.49-57.55L41.49-57.55L41.49-57.55Q44.62-57.55 46.73-58.87L46.73-58.87L46.73-58.87Q49.90-56.06 49.90-52.01L49.90-52.01L49.90-52.01Q49.90-47.96 46.29-45.06L46.29-45.06L46.29-45.06Q42.59-41.98 37.84-41.98L37.84-41.98L37.84-41.98Q35.55-41.98 31.86-42.59L31.86-42.59L31.86-42.59Q27.54-29.04 27.54-19.62L27.54-19.62L27.54-19.62Q27.54-10.21 32.30-5.28L32.30-5.28L32.30-5.28Q30.10-1.32 26.84 0.22L26.84 0.22L26.84 0.22Q23.58 1.76 18.70 1.76L18.70 1.76L18.70 1.76Q13.82 1.76 10.78-0.92L10.78-0.92L10.78-0.92Q7.74-3.61 7.74-9.15L7.74-9.15L7.74-9.15Q7.74-15.58 11.26-26.14L11.26-26.14L11.26-26.14Q14.78-36.61 20.06-44.62L20.06-44.62L20.06-44.62Q17.51-44.88 14.87-44.88L14.87-44.88L14.87-44.88Q9.42-44.88 8.54-42.86ZM46.20-0.44L46.20-0.44L57.29-58.08L57.29-58.08Q67.67-58.96 74.36-58.96L74.36-58.96L74.36-58.96Q81.05-58.96 85.36-58.39L85.36-58.39L85.36-58.39Q89.67-57.82 92.58-56.32L92.58-56.32L92.58-56.32Q98.38-53.50 98.38-45.76L98.38-45.76L98.38-45.76Q98.38-41.27 94.51-37.49L94.51-37.49L94.51-37.49Q90.90-34.06 86.94-33.26L86.94-33.26L86.94-33.26Q91.17-32.56 94.16-29.39L94.16-29.39L94.16-29.39Q97.33-26.05 97.33-20.86L97.33-20.86L97.33-20.86Q97.33-10.82 89.85-4.97L89.85-4.97L89.85-4.97Q82.37 0.88 67.67 0.88L67.67 0.88L67.67 0.88Q57.55 0.88 46.20-0.44ZM70.14-28.34L65.74-5.54L65.74-5.54Q66.53-5.46 66.70-5.46L66.70-5.46L67.50-5.46L67.50-5.46Q74.71-5.46 77.79-10.21L77.79-10.21L77.79-10.21Q80.08-13.90 80.08-20.68L80.08-20.68L80.08-20.68Q80.08-24.29 77.75-26.22L77.75-26.22L77.75-26.22Q75.42-28.16 70.14-28.34L70.14-28.34ZM83.51-45.67L83.51-45.67L83.51-45.67Q83.51-52.98 76.47-52.98L76.47-52.98L75.68-52.98L75.68-52.98Q75.33-52.98 74.80-52.89L74.80-52.89L71.28-34.32L72.16-34.32L72.16-34.32Q83.51-34.58 83.51-45.67Z" fill="url(#editing-shiny-gradient2)"></path></g></g><style>text {
  font-size: 64px;
  font-family: Arial Black;
  dominant-baseline: central;
  text-anchor: middle;
}</style></svg>